<svg width="80" height="81" viewBox="0 0 80 81" fill="none" xmlns="http://www.w3.org/2000/svg">
<path d="M44.3529 61.1797C42.0441 65.0924 36.3656 65.0385 34.1315 61.0828L18.3332 33.1099C16.0991 29.1542 18.9851 24.2633 23.5279 24.3064L55.6522 24.6112C60.1951 24.6543 62.9877 29.599 60.6789 33.5116L44.3529 61.1797Z" fill="white"/>
<g filter="url(#filter0_d_3811_151)">
<path d="M47.329 56.1492C43.701 62.2976 34.7776 62.213 31.2669 55.9968L21.2135 38.1959C17.7027 31.9797 22.2378 24.2941 29.3765 24.3618L49.8193 24.5558C56.958 24.6235 61.3464 32.3937 57.7184 38.5422L47.329 56.1492Z" fill="#D9D9D9" fill-opacity="0.01" shape-rendering="crispEdges"/>
</g>
<rect x="31.7578" y="0.364881" width="16" height="35" rx="8" fill="white"/>
<defs>
<filter id="filter0_d_3811_151" x="0" y="4.36488" width="79.0156" height="76.3438" filterUnits="userSpaceOnUse" color-interpolation-filters="sRGB">
<feFlood flood-opacity="0" result="BackgroundImageFix"/>
<feColorMatrix in="SourceAlpha" type="matrix" values="0 0 0 0 0 0 0 0 0 0 0 0 0 0 0 0 0 0 127 0" result="hardAlpha"/>
<feOffset/>
<feGaussianBlur stdDeviation="10"/>
<feComposite in2="hardAlpha" operator="out"/>
<feColorMatrix type="matrix" values="0 0 0 0 1 0 0 0 0 1 0 0 0 0 1 0 0 0 1 0"/>
<feBlend mode="normal" in2="BackgroundImageFix" result="effect1_dropShadow_3811_151"/>
<feBlend mode="normal" in="SourceGraphic" in2="effect1_dropShadow_3811_151" result="shape"/>
</filter>
</defs>
</svg>
