<svg width="30" height="194" viewBox="0 0 30 194" fill="none" xmlns="http://www.w3.org/2000/svg">
<path d="M28.4432 2.94462C29.2307 2.65651 29.6355 1.78457 29.3474 0.997075C29.0593 0.209583 28.1874 -0.195248 27.3999 0.0928583L27.9216 1.51874L28.4432 2.94462ZM27.9216 193.585C28.7601 193.585 29.4399 192.905 29.4399 192.067V178.402C29.4399 177.563 28.7601 176.884 27.9216 176.884C27.083 176.884 26.4032 177.563 26.4032 178.402L26.4032 190.548H14.2568C13.4182 190.548 12.7385 191.228 12.7385 192.067C12.7385 192.905 13.4182 193.585 14.2568 193.585H27.9216ZM27.9216 1.51874L27.3999 0.0928583C21.6484 2.19705 13.8925 9.45575 8.12058 23.9401C2.3273 38.4781 -1.54086 60.4483 0.595376 92.3392L2.11029 92.2378L3.62521 92.1363C1.51017 60.5618 5.36009 39.0705 10.9415 25.0642C16.5442 11.0043 23.8196 4.6362 28.4432 2.94462L27.9216 1.51874ZM2.11029 92.2378L0.595376 92.3392C2.72755 124.17 7.48988 147.54 12.5992 163.844C17.6877 180.081 23.1671 189.459 26.848 193.14L27.9216 192.067L28.9952 190.993C25.8436 187.841 20.5431 179.038 15.4968 162.936C10.4714 146.899 5.7443 123.771 3.62521 92.1363L2.11029 92.2378Z" fill="#FFCBCB"/>
</svg>
