<svg width="11" height="11" viewBox="0 0 11 11" fill="none" xmlns="http://www.w3.org/2000/svg">
<g filter="url(#filter0_d_8_166)">
<path d="M3.58948 2.63027C4.13626 1.14215 4.40965 0.398085 4.89502 0.398085C5.3804 0.398085 5.65379 1.14215 6.20057 2.63027L6.22143 2.68705C6.33059 2.98414 6.38517 3.13269 6.4934 3.24092C6.60163 3.34915 6.75018 3.40373 7.04728 3.5129L7.10406 3.53376C8.59218 4.08054 9.33624 4.35393 9.33624 4.8393C9.33624 5.32467 8.59218 5.59806 7.10406 6.14484L7.04728 6.1657C6.75018 6.27487 6.60163 6.32945 6.4934 6.43768C6.38517 6.54591 6.33059 6.69446 6.22143 6.99155L6.20057 7.04833C5.65379 8.53645 5.3804 9.28051 4.89502 9.28051C4.40965 9.28051 4.13626 8.53645 3.58948 7.04833L3.56862 6.99155C3.45946 6.69446 3.40488 6.54591 3.29665 6.43768C3.18842 6.32945 3.03987 6.27487 2.74277 6.1657L2.68599 6.14484C1.19787 5.59806 0.45381 5.32467 0.45381 4.8393C0.45381 4.35393 1.19787 4.08054 2.68599 3.53376L2.74277 3.5129C3.03987 3.40373 3.18842 3.34915 3.29665 3.24092C3.40488 3.13269 3.45946 2.98414 3.56862 2.68705L3.58948 2.63027Z" fill="url(#paint0_linear_8_166)"/>
</g>
<defs>
<filter id="filter0_d_8_166" x="0.000118077" y="5.57303e-06" width="10.5136" height="10.5137" filterUnits="userSpaceOnUse" color-interpolation-filters="sRGB">
<feFlood flood-opacity="0" result="BackgroundImageFix"/>
<feColorMatrix in="SourceAlpha" type="matrix" values="0 0 0 0 0 0 0 0 0 0 0 0 0 0 0 0 0 0 127 0" result="hardAlpha"/>
<feOffset dx="0.361878" dy="0.417552"/>
<feGaussianBlur stdDeviation="0.407809"/>
<feComposite in2="hardAlpha" operator="out"/>
<feColorMatrix type="matrix" values="0 0 0 0 1 0 0 0 0 0.457482 0 0 0 0 0.457482 0 0 0 0.25 0"/>
<feBlend mode="normal" in2="BackgroundImageFix" result="effect1_dropShadow_8_166"/>
<feBlend mode="normal" in="SourceGraphic" in2="effect1_dropShadow_8_166" result="shape"/>
</filter>
<linearGradient id="paint0_linear_8_166" x1="11.1276" y1="17.0987" x2="17.0628" y2="10.8302" gradientUnits="userSpaceOnUse">
<stop stop-color="#FFE5FB"/>
<stop offset="0.605769" stop-color="#FF1C1C"/>
<stop offset="1" stop-color="#FFE5C5"/>
</linearGradient>
</defs>
</svg>
