<svg width="341" height="242" viewBox="0 0 341 242" fill="none" xmlns="http://www.w3.org/2000/svg">
<g filter="url(#filter0_d_125_2)">
<path d="M192.283 74.3532C203.725 43.213 209.446 27.643 219.602 27.643C229.759 27.643 235.48 43.213 246.922 74.3532L247.359 75.5414C249.643 81.7583 250.785 84.8668 253.05 87.1317C255.315 89.3965 258.423 90.5386 264.64 92.8229L265.828 93.2595C296.968 104.701 312.539 110.422 312.539 120.579C312.539 130.736 296.968 136.457 265.828 147.899L264.64 148.335C258.423 150.619 255.315 151.762 253.05 154.026C250.785 156.291 249.643 159.4 247.359 165.617L246.922 166.805C235.48 197.945 229.759 213.515 219.602 213.515C209.446 213.515 203.725 197.945 192.283 166.805L191.846 165.617C189.562 159.4 188.42 156.291 186.155 154.026C183.89 151.762 180.782 150.619 174.565 148.335L173.377 147.899C142.236 136.457 126.666 130.736 126.666 120.579C126.666 110.422 142.236 104.701 173.377 93.2595L174.565 92.8229C180.782 90.5386 183.89 89.3965 186.155 87.1317C188.42 84.8668 189.562 81.7583 191.846 75.5414L192.283 74.3532Z" fill="url(#paint0_linear_125_2)"/>
</g>
<g filter="url(#filter1_d_125_2)">
<path d="M44.1518 48.5916C49.5687 33.849 52.2772 26.4776 57.0857 26.4776C61.8943 26.4776 64.6027 33.849 70.0196 48.5917L70.2263 49.1542C71.3077 52.0975 71.8485 53.5691 72.9207 54.6414C73.9929 55.7136 75.4646 56.2543 78.4079 57.3358L78.9704 57.5425C93.7131 62.9594 101.084 65.6678 101.084 70.4763C101.084 75.2849 93.7131 77.9933 78.9704 83.4102L78.4079 83.6169C75.4646 84.6984 73.9929 85.2391 72.9207 86.3113C71.8485 87.3836 71.3077 88.8552 70.2263 91.7985L70.0196 92.361C64.6027 107.104 61.8943 114.475 57.0857 114.475C52.2772 114.475 49.5687 107.104 44.1518 92.361L43.9452 91.7985C42.8637 88.8552 42.323 87.3836 41.2507 86.3113C40.1785 85.2391 38.7068 84.6984 35.7636 83.6169L35.201 83.4102C20.4583 77.9933 13.087 75.2849 13.087 70.4763C13.087 65.6678 20.4583 62.9594 35.201 57.5425L35.7636 57.3358C38.7068 56.2543 40.1785 55.7136 41.2507 54.6414C42.323 53.5691 42.8637 52.0975 43.9452 49.1542L44.1518 48.5916Z" fill="url(#paint1_linear_125_2)"/>
</g>
<defs>
<filter id="filter0_d_125_2" x="117.172" y="19.3132" width="220.007" height="220.007" filterUnits="userSpaceOnUse" color-interpolation-filters="sRGB">
<feFlood flood-opacity="0" result="BackgroundImageFix"/>
<feColorMatrix in="SourceAlpha" type="matrix" values="0 0 0 0 0 0 0 0 0 0 0 0 0 0 0 0 0 0 127 0" result="hardAlpha"/>
<feOffset dx="7.57259" dy="8.73761"/>
<feGaussianBlur stdDeviation="8.53373"/>
<feComposite in2="hardAlpha" operator="out"/>
<feColorMatrix type="matrix" values="0 0 0 0 1 0 0 0 0 0.457482 0 0 0 0 0.457482 0 0 0 0.25 0"/>
<feBlend mode="normal" in2="BackgroundImageFix" result="effect1_dropShadow_125_2"/>
<feBlend mode="normal" in="SourceGraphic" in2="effect1_dropShadow_125_2" result="shape"/>
</filter>
<filter id="filter1_d_125_2" x="8.59176" y="22.5339" width="104.158" height="104.158" filterUnits="userSpaceOnUse" color-interpolation-filters="sRGB">
<feFlood flood-opacity="0" result="BackgroundImageFix"/>
<feColorMatrix in="SourceAlpha" type="matrix" values="0 0 0 0 0 0 0 0 0 0 0 0 0 0 0 0 0 0 127 0" result="hardAlpha"/>
<feOffset dx="3.58509" dy="4.13665"/>
<feGaussianBlur stdDeviation="4.04012"/>
<feComposite in2="hardAlpha" operator="out"/>
<feColorMatrix type="matrix" values="0 0 0 0 1 0 0 0 0 0.457482 0 0 0 0 0.457482 0 0 0 0.25 0"/>
<feBlend mode="normal" in2="BackgroundImageFix" result="effect1_dropShadow_125_2"/>
<feBlend mode="normal" in="SourceGraphic" in2="effect1_dropShadow_125_2" result="shape"/>
</filter>
<linearGradient id="paint0_linear_125_2" x1="239.99" y1="355.621" x2="389.23" y2="277.79" gradientUnits="userSpaceOnUse">
<stop stop-color="#FFE5FB"/>
<stop offset="0.605769" stop-color="#FF1C1C"/>
<stop offset="1" stop-color="#FFE5C5"/>
</linearGradient>
<linearGradient id="paint1_linear_125_2" x1="118.831" y1="191.929" x2="177.631" y2="129.827" gradientUnits="userSpaceOnUse">
<stop stop-color="#FFE5FB"/>
<stop offset="0.605769" stop-color="#FF1C1C"/>
<stop offset="1" stop-color="#FFE5C5"/>
</linearGradient>
</defs>
</svg>
