<svg width="121" height="126" viewBox="0 0 121 126" fill="none" xmlns="http://www.w3.org/2000/svg">
<path d="M76.7917 57.6019C80.7261 59.8734 80.7261 65.5522 76.7917 67.8237L48.9699 83.8866C45.0356 86.1581 40.1176 83.3187 40.1176 78.7757L40.1176 46.6499C40.1176 42.1069 45.0356 39.2675 48.9699 41.539L76.7917 57.6019Z" fill="white"/>
<g filter="url(#filter0_d_8_318)">
<path d="M83.1142 49.5788C93.2312 55.4199 93.2312 70.0225 83.1142 75.8636L52.7632 93.3867C42.6462 99.2277 30 91.9264 30 80.2443L30 45.198C30 33.516 42.6462 26.2146 52.7632 32.0557L83.1142 49.5788Z" fill="#D9D9D9" fill-opacity="0.01" shape-rendering="crispEdges"/>
</g>
<g filter="url(#filter1_d_8_318)">
<path d="M71.7332 54.6814C77.9158 58.2509 77.9158 67.1747 71.7332 70.7442L54.0284 80.9661C47.8458 84.5356 40.1176 80.0737 40.1176 72.9346L40.1176 52.4909C40.1176 45.3519 47.8458 40.89 54.0284 44.4595L71.7332 54.6814Z" fill="#D9D9D9" fill-opacity="0.01" shape-rendering="crispEdges"/>
</g>
<defs>
<filter id="filter0_d_8_318" x="0" y="0" width="120.702" height="125.442" filterUnits="userSpaceOnUse" color-interpolation-filters="sRGB">
<feFlood flood-opacity="0" result="BackgroundImageFix"/>
<feColorMatrix in="SourceAlpha" type="matrix" values="0 0 0 0 0 0 0 0 0 0 0 0 0 0 0 0 0 0 127 0" result="hardAlpha"/>
<feOffset/>
<feGaussianBlur stdDeviation="15"/>
<feComposite in2="hardAlpha" operator="out"/>
<feColorMatrix type="matrix" values="0 0 0 0 1 0 0 0 0 1 0 0 0 0 1 0 0 0 0.44 0"/>
<feBlend mode="normal" in2="BackgroundImageFix" result="effect1_dropShadow_8_318"/>
<feBlend mode="normal" in="SourceGraphic" in2="effect1_dropShadow_8_318" result="shape"/>
</filter>
<filter id="filter1_d_8_318" x="6.14145" y="9.22689" width="104.205" height="106.972" filterUnits="userSpaceOnUse" color-interpolation-filters="sRGB">
<feFlood flood-opacity="0" result="BackgroundImageFix"/>
<feColorMatrix in="SourceAlpha" type="matrix" values="0 0 0 0 0 0 0 0 0 0 0 0 0 0 0 0 0 0 127 0" result="hardAlpha"/>
<feOffset/>
<feGaussianBlur stdDeviation="16.9881"/>
<feComposite in2="hardAlpha" operator="out"/>
<feColorMatrix type="matrix" values="0 0 0 0 1 0 0 0 0 1 0 0 0 0 1 0 0 0 1 0"/>
<feBlend mode="normal" in2="BackgroundImageFix" result="effect1_dropShadow_8_318"/>
<feBlend mode="normal" in="SourceGraphic" in2="effect1_dropShadow_8_318" result="shape"/>
</filter>
</defs>
</svg>
